Hero.2002.BRRip.XviD-TVAL








Plot:One man defeated three assassins who sought to murder the most powerful warlord in pre-unified China. 

Source: 720p blueray...

English subs included..
English audio...

Complete name :Hero 2002 BRRip Xvid TVAL.avi
Format : AVI
Format/Info : Audio Video Interleave
File size : 1.11 GiB
Duration : 1h 39mn
Overall bit rate : 1 597 Kbps

Video
ID : 0
Format : MPEG-4 Visual
Format profile : Advanced Simple@L4
Format settings, BVOP : Yes
Format settings, QPel : No
Format settings, GMC : No warppoints
Format settings, Matrix : Default (H.263)
Codec ID : XVID
Codec ID/Hint : XviD
Duration : 1h 39mn
Bit rate : 1 332 Kbps
Width : 720 pixels
Height : 306 pixels
Display aspect ratio : 2.35:1
Frame rate : 23.976 fps
Resolution : 8 bits
Colorimetry : 4:2:0
Scan type : Progressive
Bits/(Pixel*Frame) : 0.252
Stream size : 945 MiB (83%)
Writing library : XviD 1.2.1 (UTC 2008-12-04)

Audio
ID : 1
Format : MPEG Audio
Format version : Version 1
Format profile : Layer 3
Format_Settings_Mode : Joint stereo
Format_Settings_ModeExtension : MS Stereo
Codec ID : 55
Codec ID/Hint : MP3
Duration : 1h 39mn
Bit rate mode : Constant
Bit rate : 256 Kbps
Channel(s) : 2 channels
Sampling rate : 48.0 KHz
Stream size : 182 MiB (16%)
Alignment : Split accross interleaves
Interleave, duration : 42 ms (1.00 video frame)
Interleave, preload duration : 500 ms
Writing library : LAME3.97
